<?xml version="1.0" encoding="utf-8"?>
<!-- Generator: Adobe Illustrator 17.0.0, SVG Export Plug-In . SVG Version: 6.00 Build 0)  -->
<!DOCTYPE svg PUBLIC "-//W3C//DTD SVG 1.1//EN" "http://www.w3.org/Graphics/SVG/1.1/DTD/svg11.dtd">
<svg version="1.1" id="图层_1" xmlns="http://www.w3.org/2000/svg" xmlns:xlink="http://www.w3.org/1999/xlink" x="0px" y="0px"
	 width="300px" height="77px" viewBox="0 0 300 77" enable-background="new 0 0 300 77" xml:space="preserve">
<g>
	<polygon points="172.54,11.156 166.529,11.156 165.982,14.679 171.993,14.679 	"/>
	<path d="M172.863,27.363l-0.513,3.523h2.468l-1.561,6.38c-0.277,1.096-0.625,1.894-1.065,2.367c-0.275,0.289-0.68,0.53-1.233,0.694
		l-0.509,3.42c1.196-0.167,2.217-0.641,3.04-1.424c1.192-1.122,2.024-2.663,2.476-4.445l1.766-6.991h6.036l-0.973,6.424
		c-0.276,1.849-1.339,2.736-3.073,2.736h-0.777l-0.51,3.576l1.215,0.099c1.776,0,3.193-0.491,4.214-1.54
		c1.064-1.08,1.742-2.599,2.013-4.413l1.04-6.881h5.991l-0.014,0.501c-0.144,4.587-0.123,8.387,0.05,9.189
		c0.422,1.893,1.61,2.941,3.627,3.159l0.518-3.459c-0.654-0.139-1.063-0.407-1.246-0.824c-0.096-0.22-0.196-0.728-0.169-4.025
		c0.051-1.377,0.077-3.211,0.082-4.059l0.002-0.482h2.77l0.513-3.523h-11.613l0.576-3.523h11.009l0.271-1.762h0.546l0.501-3.431
		c-0.393-0.015-0.673-0.075-0.855-0.102c-0.605-0.11-1.101-0.523-1.477-1.194c-0.098-0.179-0.311-0.658-1.026-2.647
		c-0.507-1.38-1-2.278-1.461-2.659c-0.505-0.41-1.42-0.62-2.719-0.62l-9.251-0.024c-1.034,0-1.905,0.243-2.588,0.723
		c-0.697,0.491-1.595,1.601-2.666,3.295c-0.961,1.546-1.636,2.403-2.123,2.699c-0.41,0.252-1.051,0.479-1.954,0.528l-0.501,3.431
		h0.546l-0.271,1.762h10.872l-0.576,3.523L172.863,27.363L172.863,27.363z M178.119,19.964l0.466-0.493
		c0.267-0.386,0.742-0.939,1.446-1.872c0.879-1.219,1.463-1.896,1.787-2.164c0.518-0.432,1.276-0.628,2.256-0.628l7.751,0.034
		c0.742,0,1.331,0.255,1.759,0.755c0.41,0.509,0.824,1.284,1.263,2.361c0.317,0.766,0.578,1.172,0.773,1.562l0.314,0.443h-17.815
		V19.964z"/>
	<path d="M226.714,16.441h14.123l0.513-2.819h-13.115l0.239-0.559c0.254-0.627,0.5-1.203,0.736-1.907h-2.942
		c-0.207,0.683-0.932,2.488-1.285,3.259c-0.335,0.708-0.694,1.153-1.095,1.482c-0.355,0.291-0.819,0.476-1.416,0.626l-0.511,3.41
		c0.904-0.162,1.745-0.557,2.448-1.038C226.259,17.63,226.714,16.441,226.714,16.441z"/>
	<path d="M222.491,45.039c-0.208-0.292-0.275-0.613-0.2-1.117l2.501-16.572c0.188-1.262,0.848-1.749,1.907-1.749h12.995l0.505-3.523
		h-13.436c-1.225,0-2.152,0.11-2.753,0.461c-1.032,0.619-1.646,1.631-1.875,3.166l-2.958,19.796
		c-0.118,0.793-0.095,1.308,0.07,1.787c0.387,1.141,1.084,1.568,2.13,1.568h5.162l0.512-3.523h-3.518
		C223.058,45.332,222.707,45.344,222.491,45.039z"/>
	<path d="M215.635,23.84h-5.337l1.352-6.342h8.788l0.505-3.876h-5.923l0.419-2.466h-2.914l-0.419,2.466h-5.982l-0.505,3.876h3.066
		l-4.568,22.436c-0.536,2.675-2.104,6.103-7.164,6.455H170.15c-1.147,0-1.973-0.406-2.453-1.082
		c-0.446-0.627-0.585-1.556-0.415-2.697l2.443-16.377c0.266-1.784,0.122-2.825-0.424-3.481c-0.507-0.579-1.458-0.674-2.824-0.674
		h-1.596l-0.513,3.523h0.479c0.695,0,1.205-0.033,1.515,0.403c0.306,0.43,0.401,0.918,0.284,1.703l-2.202,14.687
		c-0.362,2.422-2.883,3.719-6.061,3.969c-0.755-0.15-2.122-0.75-3.216-1.926c-0.641-0.69-0.9-1.781-1.149-2.831l-0.109-0.456
		c-0.294-1.268-0.476-6.424-0.508-9.036l-0.005-0.171h5.162l0.513-3.876h-15.588l1.889-12.332h14.906l0.522-3.876h-28.829
		c-0.997,0-1.839,0.132-2.511,0.396c-0.54,0.197-1.122,0.617-1.732,1.254c-1.03,1.035-1.658,2.306-1.867,3.784l-1.24,8.307
		c-0.169,1.133-0.193,1.362-0.196,1.433c-0.036,0.545,0.055,1.132,0.269,1.74c0.605,1.693,1.787,2.564,3.613,2.661l0.451,0.024
		l-0.132,0.51c-1.301,5.012-3.614,10.069-5.011,11.878c-0.561,0.731-1.325,1.403-2.273,1.998l-0.572,3.513
		c0.862-0.279,1.577-0.605,2.13-0.973c1.249-0.813,2.455-2.071,3.588-3.741c1.467-2.142,3.808-7.306,5.187-12.658l0.076-0.044h8.247
		l-1.698,11.12c-0.115,0.77-0.352,1.505-0.707,2.036c-0.55,0.804-1.265,1.289-2.126,1.289h-2.512l-0.512,2.466h2.817
		c1.892,0,3.426-0.639,4.687-2.527c0.653-1,1.145-2.199,1.463-4.331l1.559-10.054h7.43l-0.003,0.167
		c-0.014,2.154,0.073,7.222,0.213,8.401c0.291,2.571,0.746,5.082,2.102,6.493c2.106,2.192,4.346,2.605,5.152,2.695l-0.003,0.007
		c1.657,0.15,2.89,0.213,4.875-0.577c0.545-0.217,1.212-0.747,2.123-1.579l0.256-0.236l0.217,0.283
		c0.552,0.721,1.082,1.331,1.574,1.596c0.77,0.404,1.785,0.718,3.015,0.718h26.518v0.005c3.523-0.086,6.187-1.34,7.587-3.243
		c1.242-1.675,2.231-3.868,2.855-6.859l2.728-12.452h4.462c0.574,0,0.969-0.014,1.212,0.326c0.206,0.29,0.275,0.588,0.205,1.063
		l-2.305,15.396c-0.05,0.338-0.188,0.478-0.418,0.776c-0.321,0.388-0.671,0.408-1.041,0.408h-2.18l-0.515,3.523h2.876
		c2.32,0,3.644-1.199,4.049-3.911l2.666-17.797c0.17-1.135,0.05-1.872-0.356-2.443C217.799,24.045,216.913,23.84,215.635,23.84z
		 M140.514,28.068h-10.699c-0.851,0-1.516-0.383-1.968-1.075c-0.299-0.43-0.36-1.171-0.191-2.304l0.976-6.542
		c0.119-0.8,0.428-1.27,0.918-1.761c0.551-0.554,1.261-0.65,2.109-0.65h10.744L140.514,28.068z"/>
	<polygon points="251.951,13.622 245.822,13.622 245.31,17.498 251.438,17.498 	"/>
	<polygon points="250.084,26.306 243.956,26.306 243.443,30.182 249.572,30.182 	"/>
	<path d="M268.635,17.498h11.981l0.512-3.876h-10.496l0.685-2.224l-2.614,0.09c-0.556,1.874-1.044,3.412-2.352,4.722l-0.561,3.748
		C266.953,19.434,267.971,18.203,268.635,17.498z"/>
	<path d="M274.903,31.944c0,0,2.749-3.776,3.271-4.584c0.786-1.216,1.259-2.275,1.402-3.231c0.143-0.955,0.026-1.521-0.356-2.059
		c-0.57-0.801-1.756-1.048-3.528-1.048h-8.649l-0.516,3.523h8.057c0.478,0,0.807-0.037,1.008,0.245
		c0.113,0.16,0.257,0.362,0.168,0.807c-0.262,1.304-4.299,6.347-4.299,6.347h-6.373l-0.509,3.523h6.293l-0.948,6.459
		c-0.264,1.765-0.736,3.049-1.444,3.686c-0.489,0.445-1.262,0.778-2.365,0.778h-1.089l-0.52,3.412l0.894,0.016
		c0.153,0.007,0.302-0.006,0.45-0.006c4.013,0,6.326-2.587,7.073-7.674l0.959-6.67h6.908l0.509-3.523h-6.396V31.944z"/>
	<polygon points="248.232,38.99 242.104,38.99 241.592,41.809 247.72,41.809 	"/>
	<path d="M264.47,17.301l0.513-3.679h-4.696l0.418-2.558l-2.896-0.105l-0.416,2.663h-3.234l-0.513,3.876h1.694l-4.45,23.836
		c-0.284,1.538-0.556,2.274-0.805,3.161c-0.283,1.008-2.48,0.837-2.48,0.837h-11.006c-1.069,0-1.655-0.148-2.104-0.485
		c-1.041-0.783-1.693-1.994-1.938-3.701l-0.979-6.735h6.746l0.512-3.523h-7.752l-0.31-1.762h-3.426l2.308,13.494
		c0.427,2.531,1.336,4.161,2.699,5.241c0.766,0.598,1.802,0.996,3.651,0.996h10.97c1.079,0,2.604-0.109,3.153-0.146
		c0.771-0.052,1.471-0.482,2.048-1.395c0.85-1.342,1.03-3.712,1.641-6.952l2.628-14.056h1.827c0,0,1.281,0,1.543,0.554
		c0.138,0.24,0.234,0.658,0.01,2.157l-2.401,16.08c-0.112,0.746-0.377,1.22-0.801,1.419c-0.214,0.091-0.541,0.142-1.034,0.16
		l-0.441,2.953l1.53,0.018c1.275-0.001,2.172-0.416,2.74-1.265c0.352-0.543,0.647-1.598,0.876-3.134l2.795-18.847
		c0.178-1.197,0.089-2.041-0.259-2.437c-0.431-0.49-1.265-0.745-2.474-0.759l-3.393-0.026l1.063-5.708L264.47,17.301z"/>
</g>
<g>
	<path d="M124.843,51.511c-0.084-0.035-0.204-0.061-0.361-0.079c-0.157-0.018-0.362-0.027-0.612-0.027
		c-0.242,0-0.445,0.009-0.609,0.027c-0.164,0.017-0.297,0.043-0.4,0.079c-0.102,0.036-0.176,0.079-0.222,0.131
		c-0.046,0.053-0.076,0.114-0.09,0.185l-3.55,17.61c-0.014,0.07-0.008,0.13,0.017,0.178c0.026,0.049,0.083,0.09,0.171,0.125
		s0.211,0.06,0.368,0.079c0.157,0.017,0.356,0.026,0.598,0.026c0.251,0,0.459-0.008,0.623-0.026
		c0.164-0.019,0.295-0.044,0.393-0.079c0.097-0.035,0.171-0.077,0.221-0.125c0.049-0.049,0.082-0.108,0.096-0.178l3.55-17.61
		c0.015-0.071,0.007-0.132-0.023-0.185C124.982,51.59,124.926,51.547,124.843,51.511z"/>
	<path d="M141.675,58.682c-0.44-0.553-1.047-0.975-1.817-1.265c-0.77-0.291-1.714-0.435-2.828-0.435
		c-1.156,0-2.198,0.162-3.127,0.488c-0.931,0.325-1.744,0.782-2.439,1.37c-0.697,0.589-1.271,1.29-1.721,2.103
		c-0.451,0.813-0.773,1.703-0.968,2.67c-0.202,1.002-0.246,1.898-0.135,2.688c0.112,0.792,0.388,1.463,0.829,2.017
		c0.441,0.554,1.046,0.975,1.817,1.265s1.714,0.435,2.829,0.435c1.145,0,2.185-0.165,3.121-0.495
		c0.935-0.33,1.752-0.789,2.448-1.377c0.697-0.589,1.272-1.29,1.728-2.103c0.454-0.812,0.781-1.703,0.976-2.67
		c0.199-0.992,0.241-1.885,0.124-2.675C142.396,59.908,142.117,59.236,141.675,58.682z M139.781,63.519
		c-0.138,0.685-0.346,1.314-0.623,1.885c-0.278,0.572-0.63,1.063-1.059,1.477c-0.427,0.412-0.933,0.733-1.516,0.962
		c-0.583,0.228-1.241,0.342-1.97,0.342c-0.801,0-1.444-0.124-1.932-0.375c-0.487-0.25-0.846-0.588-1.08-1.015
		c-0.234-0.426-0.362-0.924-0.383-1.496c-0.022-0.571,0.034-1.182,0.165-1.832c0.136-0.676,0.344-1.3,0.627-1.872
		c0.281-0.571,0.637-1.065,1.067-1.483c0.429-0.417,0.933-0.74,1.511-0.969c0.578-0.228,1.237-0.342,1.978-0.342
		c0.799,0,1.444,0.124,1.932,0.375c0.486,0.251,0.844,0.591,1.07,1.021c0.228,0.431,0.353,0.932,0.374,1.503
		C139.964,62.272,139.911,62.878,139.781,63.519z"/>
	<path d="M156.515,57.236c-0.055-0.031-0.121-0.089-0.201-0.089h-3.482l0.569-2.779c0.012-0.061,0.004-0.098-0.026-0.15
		c-0.03-0.053-0.086-0.088-0.168-0.128c-0.082-0.039-0.202-0.062-0.359-0.08c-0.157-0.017-0.362-0.023-0.612-0.023
		c-0.242,0-0.444,0.01-0.608,0.027c-0.165,0.018-0.299,0.047-0.402,0.086c-0.103,0.04-0.177,0.086-0.223,0.139
		c-0.047,0.052-0.075,0.068-0.087,0.129l-0.569,2.779h-1.884c-0.08,0-0.156,0.058-0.228,0.089c-0.072,0.03-0.135,0.104-0.191,0.179
		c-0.055,0.075-0.106,0.179-0.155,0.293c-0.048,0.114-0.088,0.261-0.122,0.427c-0.064,0.317-0.065,0.506-0.004,0.646
		c0.063,0.141,0.169,0.172,0.319,0.172h1.899l-1.398,6.974c-0.138,0.686-0.184,1.302-0.141,1.807
		c0.044,0.505,0.193,0.933,0.448,1.262c0.255,0.33,0.618,0.58,1.087,0.743c0.469,0.162,1.056,0.247,1.76,0.247
		c0.231,0,0.465-0.012,0.701-0.038c0.237-0.026,0.461-0.058,0.675-0.098s0.408-0.09,0.581-0.151
		c0.173-0.061,0.307-0.127,0.401-0.198c0.094-0.07,0.176-0.18,0.248-0.329c0.069-0.149,0.131-0.351,0.182-0.606
		c0.032-0.158,0.049-0.29,0.049-0.395c0.002-0.106-0.004-0.189-0.018-0.25c-0.012-0.061-0.039-0.104-0.079-0.125
		c-0.041-0.022-0.086-0.033-0.137-0.033c-0.08,0-0.175,0.02-0.283,0.059c-0.109,0.04-0.237,0.081-0.386,0.125
		c-0.15,0.044-0.319,0.086-0.507,0.125c-0.189,0.04-0.4,0.059-0.631,0.059c-0.713,0-1.166-0.208-1.358-0.625
		c-0.191-0.418-0.206-1.077-0.041-1.894l1.334-6.658h3.482c0.15,0,0.285-0.029,0.404-0.169c0.118-0.14,0.21-0.348,0.274-0.664
		c0.034-0.167,0.052-0.298,0.055-0.412c0.004-0.114-0.011-0.224-0.041-0.299C156.611,57.335,156.569,57.267,156.515,57.236z"/>
	<path d="M172.928,58.682c-0.441-0.553-1.047-0.975-1.818-1.265c-0.77-0.291-1.714-0.435-2.828-0.435
		c-1.156,0-2.198,0.162-3.127,0.488c-0.931,0.325-1.744,0.782-2.439,1.37c-0.697,0.589-1.271,1.29-1.721,2.103
		c-0.451,0.813-0.773,1.703-0.968,2.67c-0.202,1.002-0.246,1.898-0.135,2.688c0.112,0.792,0.388,1.463,0.829,2.017
		s1.046,0.975,1.817,1.265s1.714,0.435,2.829,0.435c1.145,0,2.185-0.165,3.121-0.495c0.935-0.33,1.752-0.789,2.448-1.377
		c0.697-0.589,1.272-1.29,1.728-2.103c0.454-0.812,0.781-1.703,0.976-2.67c0.199-0.992,0.241-1.885,0.124-2.675
		C173.648,59.908,173.368,59.236,172.928,58.682z M171.033,63.519c-0.138,0.685-0.346,1.314-0.623,1.885
		c-0.278,0.572-0.63,1.063-1.059,1.477c-0.427,0.412-0.933,0.733-1.516,0.962c-0.584,0.228-1.241,0.342-1.97,0.342
		c-0.801,0-1.444-0.124-1.932-0.375c-0.487-0.25-0.847-0.588-1.08-1.015c-0.234-0.426-0.362-0.924-0.383-1.496
		c-0.022-0.571,0.034-1.182,0.164-1.832c0.137-0.676,0.346-1.3,0.628-1.872c0.282-0.571,0.637-1.065,1.067-1.483
		c0.429-0.417,0.933-0.74,1.511-0.969c0.578-0.228,1.238-0.342,1.977-0.342c0.801,0,1.445,0.124,1.932,0.375
		c0.486,0.251,0.844,0.591,1.07,1.021c0.228,0.431,0.352,0.932,0.374,1.503C171.215,62.272,171.162,62.878,171.033,63.519z"/>
	<path d="M192.351,57.264c-0.084-0.039-0.203-0.066-0.362-0.078c-0.158-0.013-0.357-0.02-0.598-0.02
		c-0.251,0-0.457,0.007-0.614,0.02c-0.159,0.013-0.293,0.04-0.401,0.078c-0.109,0.04-0.185,0.084-0.23,0.132
		c-0.045,0.049-0.074,0.107-0.089,0.178l-1.671,8.29c-0.843,0.747-1.613,1.314-2.309,1.7c-0.696,0.387-1.355,0.581-1.978,0.581
		c-0.483,0-0.888-0.081-1.217-0.244s-0.581-0.391-0.758-0.686c-0.177-0.294-0.281-0.649-0.312-1.067
		c-0.032-0.417,0.023-0.973,0.163-1.668l1.392-6.906c0.014-0.071,0.005-0.13-0.025-0.178c-0.031-0.049-0.09-0.093-0.176-0.132
		c-0.088-0.039-0.21-0.066-0.369-0.078c-0.159-0.013-0.357-0.02-0.599-0.02c-0.241,0-0.444,0.007-0.606,0.02
		c-0.164,0.013-0.3,0.04-0.408,0.078c-0.109,0.04-0.186,0.084-0.23,0.132c-0.046,0.049-0.074,0.107-0.089,0.178l-1.451,7.197
		c-0.173,0.86-0.238,1.592-0.193,2.194c0.043,0.602,0.212,1.129,0.502,1.581c0.29,0.453,0.718,0.811,1.283,1.074
		c0.565,0.264,1.3,0.396,2.203,0.396c0.774,0,1.572-0.172,2.394-0.515c0.822-0.342,1.697-0.888,2.621-1.634l-0.317,1.569
		c-0.014,0.07-0.01,0.13,0.01,0.178c0.02,0.049,0.07,0.09,0.148,0.125c0.079,0.035,0.189,0.06,0.331,0.079
		c0.142,0.017,0.328,0.026,0.559,0.026c0.212,0,0.392-0.008,0.541-0.026c0.149-0.019,0.273-0.044,0.37-0.079
		c0.098-0.035,0.169-0.077,0.214-0.125c0.044-0.049,0.073-0.108,0.087-0.178l2.392-11.863c0.014-0.071,0.004-0.13-0.032-0.178
		C192.492,57.348,192.433,57.304,192.351,57.264z"/>
	<path d="M207.51,57.601c-0.003-0.062-0.011-0.112-0.023-0.151c-0.012-0.04-0.043-0.082-0.094-0.126
		c-0.052-0.044-0.146-0.087-0.282-0.131c-0.138-0.044-0.292-0.084-0.466-0.118c-0.174-0.036-0.342-0.06-0.506-0.073
		c-0.162-0.014-0.31-0.02-0.439-0.02c-0.292,0-0.587,0.033-0.888,0.098c-0.298,0.066-0.612,0.184-0.938,0.356
		c-0.326,0.171-0.682,0.407-1.069,0.705c-0.386,0.298-0.813,0.685-1.281,1.16l0.348-1.726c0.015-0.071,0.009-0.13-0.017-0.178
		s-0.074-0.093-0.146-0.132c-0.073-0.039-0.182-0.066-0.325-0.078c-0.143-0.013-0.325-0.02-0.545-0.02
		c-0.231,0-0.419,0.007-0.561,0.02c-0.143,0.013-0.265,0.04-0.364,0.078c-0.098,0.04-0.167,0.084-0.207,0.132
		c-0.04,0.049-0.066,0.107-0.08,0.178l-2.392,11.863c-0.014,0.07-0.008,0.13,0.017,0.178c0.026,0.049,0.083,0.09,0.171,0.125
		c0.088,0.035,0.211,0.06,0.368,0.079c0.157,0.017,0.357,0.026,0.598,0.026c0.251,0,0.459-0.008,0.623-0.026
		c0.164-0.019,0.295-0.044,0.393-0.079c0.097-0.035,0.17-0.077,0.221-0.125c0.05-0.049,0.082-0.108,0.096-0.178l1.573-7.803
		c0.45-0.484,0.853-0.892,1.211-1.226c0.358-0.334,0.692-0.602,0.999-0.805c0.307-0.202,0.589-0.347,0.849-0.435
		c0.259-0.087,0.514-0.131,0.765-0.131c0.211,0,0.403,0.017,0.577,0.053c0.174,0.035,0.33,0.072,0.468,0.112
		c0.138,0.039,0.26,0.079,0.367,0.118c0.109,0.039,0.202,0.059,0.282,0.059s0.147-0.02,0.199-0.059
		c0.055-0.04,0.103-0.097,0.149-0.171c0.045-0.075,0.085-0.178,0.123-0.311c0.036-0.131,0.074-0.294,0.113-0.487
		c0.041-0.202,0.071-0.362,0.089-0.482C207.504,57.752,207.513,57.662,207.51,57.601z"/>
	<path d="M209.5,66.815c-0.623,0-1.073,0.103-1.351,0.309c-0.278,0.207-0.479,0.622-0.605,1.246
		c-0.123,0.606-0.088,1.01,0.102,1.212c0.191,0.202,0.587,0.303,1.189,0.303c0.623,0,1.073-0.103,1.352-0.31
		c0.277-0.207,0.479-0.622,0.604-1.246c0.123-0.606,0.088-1.01-0.102-1.212C210.499,66.916,210.103,66.815,209.5,66.815z"/>
	<path d="M229.346,58.405c-0.034-0.061-0.099-0.145-0.199-0.251c-0.1-0.105-0.267-0.233-0.503-0.382
		c-0.236-0.149-0.514-0.281-0.832-0.395c-0.319-0.114-0.674-0.207-1.067-0.277c-0.394-0.07-0.806-0.105-1.238-0.105
		c-0.894,0-1.752,0.13-2.572,0.39c-0.821,0.259-1.57,0.657-2.245,1.193c-0.676,0.536-1.262,1.223-1.758,2.062
		c-0.495,0.84-0.861,1.843-1.097,3.012c-0.207,1.028-0.257,1.936-0.149,2.722s0.361,1.45,0.76,1.99
		c0.398,0.54,0.945,0.952,1.642,1.233c0.697,0.281,1.533,0.422,2.508,0.422c0.472,0,0.937-0.04,1.395-0.119
		c0.458-0.079,0.888-0.182,1.291-0.31c0.402-0.127,0.77-0.272,1.105-0.435c0.334-0.162,0.574-0.299,0.723-0.409
		c0.147-0.11,0.244-0.193,0.291-0.25s0.091-0.123,0.131-0.198s0.076-0.167,0.108-0.277c0.033-0.11,0.064-0.24,0.094-0.39
		c0.035-0.176,0.058-0.327,0.069-0.454s0.006-0.232-0.012-0.317c-0.018-0.083-0.049-0.142-0.092-0.178
		c-0.043-0.035-0.1-0.053-0.17-0.053c-0.12,0-0.304,0.077-0.551,0.231s-0.547,0.326-0.903,0.514
		c-0.355,0.189-0.763,0.362-1.227,0.521c-0.465,0.158-0.983,0.237-1.556,0.237c-0.604,0-1.119-0.094-1.548-0.283
		c-0.43-0.189-0.766-0.477-1.009-0.863c-0.244-0.387-0.391-0.868-0.439-1.444c-0.05-0.575,0.003-1.246,0.156-2.011
		c0.309-1.528,0.862-2.695,1.662-3.499c0.8-0.805,1.798-1.207,2.993-1.207c0.584,0,1.074,0.072,1.472,0.218
		c0.398,0.144,0.729,0.305,0.995,0.481c0.266,0.176,0.482,0.336,0.649,0.481c0.168,0.145,0.326,0.217,0.476,0.217
		c0.131,0,0.255-0.068,0.372-0.204c0.118-0.135,0.212-0.375,0.281-0.718c0.032-0.158,0.053-0.29,0.064-0.395
		c0.012-0.105,0.011-0.2-0.003-0.284C229.401,58.539,229.378,58.467,229.346,58.405z"/>
	<path d="M246.008,58.682c-0.44-0.553-1.046-0.975-1.817-1.265c-0.77-0.291-1.714-0.435-2.828-0.435
		c-1.156,0-2.198,0.162-3.127,0.488c-0.931,0.325-1.744,0.782-2.439,1.37c-0.697,0.589-1.271,1.29-1.721,2.103
		c-0.451,0.813-0.773,1.703-0.968,2.67c-0.202,1.002-0.246,1.898-0.135,2.688c0.112,0.792,0.388,1.463,0.829,2.017
		s1.046,0.975,1.817,1.265s1.714,0.435,2.829,0.435c1.145,0,2.185-0.165,3.121-0.495c0.935-0.33,1.752-0.789,2.448-1.377
		c0.697-0.589,1.272-1.29,1.728-2.103c0.454-0.812,0.781-1.703,0.976-2.67c0.199-0.992,0.241-1.885,0.124-2.675
		C246.728,59.908,246.449,59.236,246.008,58.682z M244.113,63.519c-0.138,0.685-0.346,1.314-0.623,1.885
		c-0.278,0.572-0.63,1.063-1.059,1.477c-0.427,0.412-0.933,0.733-1.516,0.962c-0.583,0.228-1.241,0.342-1.97,0.342
		c-0.801,0-1.444-0.124-1.932-0.375c-0.487-0.25-0.846-0.588-1.08-1.015c-0.234-0.426-0.362-0.924-0.383-1.496
		c-0.022-0.571,0.034-1.182,0.165-1.832c0.136-0.676,0.344-1.3,0.627-1.872c0.281-0.571,0.637-1.065,1.067-1.483
		c0.429-0.417,0.933-0.74,1.511-0.969c0.578-0.228,1.237-0.342,1.978-0.342c0.799,0,1.444,0.124,1.932,0.375
		c0.486,0.251,0.844,0.591,1.07,1.021c0.228,0.431,0.353,0.932,0.374,1.503C244.296,62.272,244.243,62.878,244.113,63.519z"/>
	<path d="M272.945,58.458c-0.276-0.449-0.684-0.807-1.223-1.074c-0.539-0.268-1.245-0.402-2.119-0.402
		c-0.362,0-0.73,0.041-1.104,0.125c-0.373,0.083-0.766,0.217-1.18,0.401c-0.415,0.185-0.855,0.426-1.323,0.725
		c-0.467,0.299-0.97,0.664-1.509,1.094c-0.09-0.351-0.227-0.67-0.41-0.956c-0.183-0.285-0.425-0.531-0.725-0.738
		c-0.3-0.206-0.662-0.367-1.085-0.481c-0.424-0.114-0.918-0.171-1.481-0.171c-0.733,0-1.495,0.174-2.283,0.521
		c-0.788,0.347-1.64,0.894-2.554,1.641l0.317-1.568c0.014-0.071,0.008-0.13-0.018-0.178c-0.026-0.049-0.074-0.093-0.146-0.132
		c-0.072-0.039-0.18-0.066-0.323-0.078c-0.144-0.013-0.326-0.02-0.546-0.02c-0.231,0-0.419,0.007-0.562,0.02
		c-0.143,0.013-0.264,0.04-0.362,0.078c-0.099,0.04-0.168,0.084-0.208,0.132c-0.04,0.049-0.066,0.107-0.081,0.178l-2.391,11.863
		c-0.014,0.07-0.008,0.13,0.018,0.178c0.025,0.049,0.082,0.09,0.17,0.125s0.211,0.06,0.368,0.079
		c0.157,0.017,0.357,0.026,0.598,0.026c0.251,0,0.459-0.008,0.623-0.026c0.164-0.019,0.295-0.044,0.393-0.079
		c0.097-0.035,0.17-0.077,0.221-0.125c0.049-0.049,0.081-0.108,0.095-0.178l1.671-8.291c0.834-0.747,1.581-1.313,2.242-1.7
		c0.66-0.386,1.277-0.58,1.85-0.58c0.462,0,0.845,0.079,1.15,0.237s0.538,0.386,0.699,0.686c0.16,0.298,0.254,0.655,0.282,1.067
		c0.026,0.413-0.01,0.871-0.11,1.371l-1.454,7.21c-0.014,0.07-0.009,0.13,0.016,0.178c0.026,0.049,0.083,0.09,0.171,0.125
		c0.088,0.035,0.214,0.06,0.376,0.079c0.162,0.017,0.359,0.026,0.59,0.026c0.241,0,0.444-0.008,0.608-0.026
		c0.164-0.019,0.297-0.044,0.401-0.079c0.102-0.035,0.178-0.077,0.228-0.125c0.051-0.049,0.083-0.108,0.097-0.178l1.671-8.291
		c0.844-0.747,1.594-1.313,2.249-1.7c0.656-0.386,1.27-0.58,1.843-0.58c0.461,0,0.847,0.079,1.157,0.237
		c0.31,0.158,0.545,0.386,0.707,0.686c0.16,0.298,0.249,0.655,0.266,1.067c0.017,0.413-0.025,0.871-0.125,1.371l-1.454,7.21
		c-0.014,0.07-0.005,0.13,0.025,0.178c0.03,0.049,0.09,0.09,0.178,0.125s0.211,0.06,0.368,0.079
		c0.157,0.017,0.362,0.026,0.613,0.026c0.241,0,0.444-0.008,0.608-0.026c0.164-0.019,0.295-0.044,0.393-0.079
		c0.097-0.035,0.17-0.077,0.221-0.125c0.05-0.049,0.082-0.108,0.096-0.178l1.512-7.5c0.134-0.667,0.184-1.303,0.15-1.904
		C273.376,59.431,273.221,58.906,272.945,58.458z"/>
</g>
<g>
	<path fill="#FF860D" d="M67.741,43.796c1.77,1.944,5.121,1.682,7.624-0.596c0.281-0.258,0.532-0.537,0.768-0.823
		c1.836,1.044,4.42,0.635,6.394-1.162c1.273-1.166,2.047-2.709,2.113-4.241c0.004-0.073,0.007-0.15,0.007-0.224
		c-0.002-0.715-0.168-1.392-0.474-1.987c0.305-0.2,0.598-0.423,0.874-0.673c1.28-1.164,2.119-2.707,2.119-4.237
		c0-1.657-0.831-2.73-1.065-3.059c-1.201-1.27-3.129-1.66-4.983-1.045c-0.173-0.383-0.397-0.745-0.682-1.056
		c-1.768-1.934-5.014-1.77-7.378,0.377c-1.12,1.022-1.834,2.332-2.053,3.637c-1.322,0.097-2.692,0.687-3.805,1.703
		c-1.273,1.162-2.043,2.705-2.111,4.236c-0.057,1.178,0.324,2.27,1.062,3.076c0.331,0.366,0.725,0.653,1.159,0.871
		C66.419,40.472,66.524,42.464,67.741,43.796z M72.627,34.657c0.043-0.948,0.581-1.981,1.436-2.761
		c1.499-1.367,3.459-1.575,4.462-0.476c0.393,0.428,0.585,0.997,0.557,1.644c-0.045,0.949-0.581,1.98-1.436,2.758
		c-0.856,0.78-1.934,1.219-2.884,1.176c-0.645-0.03-1.192-0.273-1.581-0.704c-0.364-0.397-0.555-0.915-0.556-1.504
		C72.625,34.747,72.626,34.704,72.627,34.657z"/>
	<path fill="#FF860D" d="M66.468,44.723c-1.197-1.491-1.624-3.606-0.68-5.597c-4.552-4.314-0.705-11.221,4.735-11.761
		c-4.13-14.387-17.376-24.918-33.09-24.918C18.416,2.446,3,17.862,3,36.879c0,16.056,10.989,29.544,25.857,33.355
		c-2.793,1.458-5.926,2.353-9.252,2.525c3.595,0.978,7.374,1.51,11.279,1.51c10.896,0,20.829-4.078,28.392-10.774
		c2.928-2.406,5.444-5.291,7.446-8.527c-0.445-1.831-0.687-3.742-0.687-5.709C66.035,47.707,66.188,46.192,66.468,44.723z
		 M12.168,45.464c2.284,2.014,25.879,26.818,45.074-15.183l0.98-1.187C58.222,29.094,44.889,86.824,12.168,45.464z"/>
	<path fill="#FF860D" d="M112.901,49.315c0-12.577-10.196-22.773-22.773-22.773c-0.681,0-1.354,0.036-2.02,0.094
		c0.322,0.615,0.645,1.484,0.645,2.588c0,1.751-0.96,3.516-2.424,4.847c-0.316,0.286-0.651,0.542-0.999,0.77
		c0.35,0.681,0.54,1.455,0.542,2.273c0,0.085-0.004,0.173-0.008,0.257c-0.076,1.751-0.961,3.516-2.417,4.85
		c-2.257,2.056-5.213,2.522-7.313,1.329c-0.27,0.328-0.557,0.646-0.878,0.941c-2.421,2.203-5.532,2.75-7.66,1.525
		c-0.156,1.077-0.241,2.178-0.241,3.299c0,7.093,3.243,13.427,8.326,17.604c5.002,4.429,11.571,7.125,18.778,7.125
		c2.583,0,5.082-0.352,7.46-0.998c-2.2-0.114-4.272-0.706-6.119-1.67C105.633,68.855,112.901,59.934,112.901,49.315z M78.187,47.43
		c0,0,11.941,19.431,22.541,12.177C100.728,59.607,90.979,79.796,78.187,47.43z"/>
</g>
<g>
	<path d="M108.919,11.239c0.654,0,1.292,0.168,1.915,0.503s1.108,0.815,1.455,1.44c0.348,0.624,0.521,1.276,0.521,1.953
		c0,0.671-0.171,1.316-0.514,1.935c-0.342,0.619-0.822,1.1-1.44,1.443c-0.618,0.342-1.264,0.514-1.938,0.514
		s-1.32-0.171-1.938-0.514c-0.618-0.342-1.098-0.823-1.443-1.443c-0.344-0.619-0.516-1.264-0.516-1.935
		c0-0.678,0.175-1.329,0.524-1.953s0.835-1.104,1.458-1.44C107.627,11.406,108.266,11.239,108.919,11.239z M108.919,11.884
		c-0.547,0-1.08,0.14-1.597,0.421c-0.518,0.28-0.923,0.681-1.215,1.203c-0.292,0.521-0.439,1.064-0.439,1.628
		c0,0.561,0.144,1.098,0.431,1.613c0.287,0.514,0.689,0.915,1.205,1.203c0.516,0.287,1.055,0.431,1.615,0.431
		c0.561,0,1.099-0.144,1.615-0.431s0.917-0.688,1.203-1.203c0.286-0.514,0.428-1.052,0.428-1.613c0-0.564-0.145-1.107-0.436-1.628
		s-0.696-0.922-1.215-1.203C109.995,12.024,109.463,11.884,108.919,11.884z M107.211,17.288v-4.191h1.44
		c0.492,0,0.848,0.039,1.068,0.116c0.22,0.077,0.396,0.212,0.526,0.405c0.131,0.193,0.196,0.397,0.196,0.614
		c0,0.306-0.109,0.573-0.328,0.8c-0.218,0.227-0.508,0.354-0.87,0.382c0.148,0.062,0.267,0.136,0.356,0.222
		c0.169,0.165,0.375,0.442,0.619,0.831l0.511,0.821h-0.826l-0.372-0.661c-0.292-0.52-0.528-0.845-0.707-0.975
		c-0.124-0.096-0.305-0.145-0.542-0.145h-0.397v1.781C107.885,17.288,107.211,17.288,107.211,17.288z M107.887,14.929h0.821
		c0.392,0,0.66-0.058,0.803-0.175c0.143-0.117,0.214-0.272,0.214-0.464c0-0.124-0.034-0.235-0.103-0.333
		c-0.069-0.098-0.164-0.171-0.286-0.219s-0.348-0.072-0.679-0.072h-0.769L107.887,14.929L107.887,14.929z"/>
</g>
</svg>
